<svg width="180" height="180" viewBox="0 0 180 180" fill="none" xmlns="http://www.w3.org/2000/svg"><g clip-path="url(#a)"><path d="M180 0H0v180h180V0Z" fill="#81B3D3"/><path d="M61.8797 110.553c.1203.122.1812.242.1812.363.1218 0 .2421.06.3624.181 3.265 3.621 6.9549 7.002 11.0666 10.141 4.1117 3.018 8.8296 4.647 14.1504 4.889.1219 0 .2421.062.3624.183h.5452c.1203 0 .2422.059.3625.18h1.9949c.6061-.121 1.1498-.241 1.6341-.363 1.9386-.363 3.7875-1.101 5.4426-2.172 1.8122-1.087 3.204-2.416 4.171-3.985l.364-.725.363-.723c.242-.845.423-1.63.545-2.355.12-.724.181-1.388.181-1.991 0-3.26-1.453-5.976-4.3539-8.15-2.7049-2.25-5.7723-4.025-9.0717-5.252-1.2408-.457-2.5145-.8199-3.8102-1.0853-1.1373-.3435-2.2868-.6458-3.4462-.9061h-.3624c-.1219-.12-.2421-.1808-.3624-.1808-5.8826-1.4308-11.5112-3.7516-16.6905-6.8818-5.2022-3.2591-8.7687-7.9078-10.7042-13.9443-.3791-1.2631-.742-2.5311-1.0889-3.8034-.2483-1.3783-.4297-2.7678-.5436-4.1637-.1115-.4142-.1723-.8405-.1812-1.2693v-4.3461c.1203-.9653.3015-1.9306.5436-2.8974.3756-2.466.9828-4.8912 1.8137-7.2435.8467-2.414 1.9356-4.5878 3.265-6.5184 3.8711-6.3999 8.8296-10.9877 14.8768-13.7634 6.1691-2.7774 12.5788-4.1652 19.2307-4.1652 1.5731 0 3.1447.12 4.7178.3617 1.6988.1212 3.3926.3022 5.0786.5427 4.412.7408 8.73 1.9553 12.88 3.6226 4.354 1.6904 8.346 3.6817 11.975 5.9756l-9.978 22.2748c-3.256-2.4085-6.717-4.529-10.342-6.3375-3.627-1.812-7.5577-2.7165-11.7913-2.7165h-1.4528c-2.7808.3618-5.3803 1.6296-7.8001 3.8019-2.4183 2.0522-3.6274 4.2868-3.6274 6.7008v1.0869c.1203.3618.3015.7236.5436 1.0869.2422.8452.6655 1.6296 1.2701 2.3547.6046.7236 1.2701 1.3879 1.9949 1.9914 1.331 1.0869 3.265 2.113 5.8067 3.0783 2.5386.8452 5.2006 1.6904 7.9828 2.5356 2.2965.6035 4.5335 1.207 6.7115 1.8105 2.177.4834 3.991.9669 5.442 1.4503 6.773 2.414 11.853 6.4575 15.24 12.1323 3.385 5.553 5.139 11.4697 5.26 17.7457v.906c0 .726-.06 1.451-.182 2.174v1.992c-.724 6.278-2.78 12.254-6.167 17.928-3.265 5.675-7.68 10.021-13.243 13.04-2.065.969-4.185 1.815-6.35 2.534-2.162.601-4.34 1.145-6.53 1.631-1.7967.36-3.6148.602-5.4429.724-1.7439.236-3.5016.357-5.2615.362h-1.9965c-7.2564-.24-14.391-1.811-21.4068-4.71-7.0143-3.017-13.2427-7.001-18.6839-11.951l14.5113-23.181Z" fill="#fff"/></g><defs><clipPath id="a"><path fill="#fff" d="M0 0h180v180H0z"/></clipPath></defs></svg>