<svg width="32" height="38" viewBox="0 0 32 38" fill="none" xmlns="http://www.w3.org/2000/svg"><path d="M30.5778 11.2058H18.1841c6.908-3.44424 7.4667-5.62222 7.2127-6.83784-.5587-1.97537-2.8444-3.494892-4.9778-2.68448-2.7936 1.06366-3.5555 5.21702-4.3174 8.20541-.9651-3.03904-1.8794-6.88849-4.0635-8.86387C11.4286.467863 10.5143-.0892942 9.14286.0120071 7.11111.21461 4.21587 2.69649 5.43492 5.48228c1.11746 2.68448 4.82538 4.4066 7.31428 5.77422H1.42222C.609524 11.2565 0 11.9149 0 12.6747v5.6728c0 .8105.660317 1.4183 1.42222 1.4183h.15238V38H30.527V19.7658h.0508c.8127 0 1.4222-.6585 1.4222-1.4183v-5.6728c0-.8104-.6603-1.4689-1.4222-1.4689Zm-9.3461-8.25605c1.0667-.15196 2.4889.65845 2.6413 1.62082.2032 1.36756-1.6762 2.63383-2.5397 3.19099-1.2698.86106-2.4889 1.31691-3.6571 2.02602.4063-1.87407 1.2698-6.53393 3.5555-6.83783ZM9.75238 7.91351c-1.11746-.75976-3.25079-2.22863-3.2-3.9001.05079-1.82342 2.89524-3.292294 4.41902-1.92473 1.9302 1.67148 2.8445 5.57158 3.5556 8.30672-1.6254-.81042-3.1492-1.41823-4.77462-2.48189ZM12.7492 36.4805H3.04762V19.7658h9.70158v16.7147Zm0-18.2343H1.52381v-5.5209H12.7492v5.5209Zm5.0794 18.2343h-3.6064V12.7253h3.6064v23.7552Zm11.1746 0h-9.6508V19.7658h9.7016v16.7147h-.0508Zm1.473-18.2343H19.3524v-5.5209h11.1238v5.5209Z" fill="#81B3D2"/></svg>